PathFileType	4	(X/Y/Z)	C:\Users\italobelli\Desktop\GitHub\PTbot_officialCBL\Personal_Results\ABD01_noisy2.trc
DataRate	CameraRate	NumFrames	NumMarkers	Units	OrigDataRate	OrigDataStartFrame	OrigNumFrames
104.666667	104.666667	29	9	m	104.666667	826	1100
Frame#	Time		gu		centelbow		EpL		centpxt8		centijc7		ij		ts		aa		ai
			X1	Y1	Z1	X2	Y2	Z2	X3	Y3	Z3	X4	Y4	Z4	X5	Y5	Z5	X6	Y6	Z6	X7	Y7	Z7	X8	Y8	Z8	X9	Y9	Z9

826	7.8822	-0.10086	0.050988	0.11665	-0.070311	0.14234	0.3428	-0.088667	0.16587	0.33212	-0.046816	-0.15316	-0.008669	-0.046816	0.031938	-0.008669	0	0	0	-0.13404	-0.0062766	0.023201	-0.14003	0.061678	0.11959	-0.13243	-0.095362	0.091436
827	7.8917	-0.10081	0.050554	0.11706	-0.070483	0.13881	0.34479	-0.088797	0.16253	0.33435	-0.046816	-0.15316	-0.008669	-0.046816	0.031938	-0.008669	0	0	0	-0.13391	-0.0058914	0.022818	-0.13989	0.061213	0.11992	-0.13223	-0.095695	0.090307
828	7.9013	-0.10077	0.050129	0.11748	-0.070669	0.13531	0.34673	-0.088943	0.15921	0.33652	-0.046816	-0.15316	-0.008669	-0.046816	0.031938	-0.008669	0	0	0	-0.13377	-0.0055116	0.022451	-0.13977	0.060763	0.12024	-0.13203	-0.096007	0.089218
829	7.9108	-0.10072	0.049713	0.1179	-0.070871	0.13183	0.34862	-0.089107	0.15591	0.33863	-0.046816	-0.15316	-0.008669	-0.046816	0.031938	-0.008669	0	0	0	-0.13364	-0.0051378	0.022102	-0.13964	0.060329	0.12056	-0.13182	-0.096297	0.088171
830	7.9204	-0.10069	0.049307	0.11832	-0.07109	0.12838	0.35045	-0.08929	0.15263	0.34068	-0.046816	-0.15316	-0.008669	-0.046816	0.031938	-0.008669	0	0	0	-0.1335	-0.0047706	0.021771	-0.13953	0.059911	0.12088	-0.13162	-0.096563	0.087169
831	7.9299	-0.10065	0.048911	0.11873	-0.071327	0.12496	0.35224	-0.089492	0.14937	0.34267	-0.046816	-0.15316	-0.008669	-0.046816	0.031938	-0.008669	0	0	0	-0.13337	-0.0044107	0.02146	-0.13942	0.059511	0.12118	-0.13142	-0.096804	0.086215
832	7.9395	-0.10063	0.048528	0.11915	-0.071582	0.12157	0.35396	-0.089714	0.14615	0.34459	-0.046816	-0.15316	-0.008669	-0.046816	0.031938	-0.008669	0	0	0	-0.13323	-0.0040587	0.021169	-0.13932	0.059129	0.12148	-0.13123	-0.09702	0.08531
833	7.949	-0.1006	0.048156	0.11956	-0.071857	0.11823	0.35562	-0.089959	0.14296	0.34644	-0.046816	-0.15316	-0.008669	-0.046816	0.031938	-0.008669	0	0	0	-0.1331	-0.0037153	0.020899	-0.13923	0.058767	0.12177	-0.13103	-0.097209	0.084458
834	7.9586	-0.10059	0.047799	0.11997	-0.072153	0.11493	0.35722	-0.090226	0.1398	0.34822	-0.046816	-0.15316	-0.008669	-0.046816	0.031938	-0.008669	0	0	0	-0.13296	-0.003381	0.020651	-0.13914	0.058426	0.12205	-0.13084	-0.09737	0.083661
835	7.9682	-0.10058	0.047455	0.12037	-0.072471	0.11168	0.35876	-0.090518	0.13669	0.34992	-0.046816	-0.15316	-0.008669	-0.046816	0.031938	-0.008669	0	0	0	-0.13282	-0.0030566	0.020426	-0.13907	0.058106	0.12232	-0.13064	-0.097503	0.082921
836	7.9777	-0.10057	0.047127	0.12077	-0.072811	0.10848	0.36023	-0.090834	0.13363	0.35155	-0.046816	-0.15316	-0.008669	-0.046816	0.031938	-0.008669	0	0	0	-0.13268	-0.0027426	0.020225	-0.139	0.057809	0.12258	-0.13045	-0.097606	0.082242
837	7.9873	-0.10057	0.046815	0.12117	-0.073176	0.10534	0.36163	-0.091177	0.13061	0.35309	-0.046816	-0.15316	-0.008669	-0.046816	0.031938	-0.008669	0	0	0	-0.13255	-0.0024396	0.020048	-0.13895	0.057535	0.12283	-0.13027	-0.097678	0.081626
838	7.9968	-0.10058	0.04652	0.12157	-0.073565	0.10225	0.36295	-0.091546	0.12765	0.35455	-0.046816	-0.15316	-0.008669	-0.046816	0.031938	-0.008669	0	0	0	-0.13241	-0.0021484	0.019897	-0.1389	0.057286	0.12307	-0.13008	-0.097718	0.081075
839	8.0064	-0.10059	0.046242	0.12196	-0.073975	0.099218	0.36421	-0.09194	0.12472	0.35594	-0.046816	-0.15316	-0.008669	-0.046816	0.031938	-0.008669	0	0	0	-0.13227	-0.0018669	0.019768	-0.13887	0.057059	0.1233	-0.1299	-0.097731	0.080578
840	8.0159	-0.10061	0.045975	0.12236	-0.074395	0.096181	0.36544	-0.092344	0.12179	0.3573	-0.046816	-0.15316	-0.008669	-0.046816	0.031938	-0.008669	0	0	0	-0.13212	-0.0015873	0.019646	-0.13883	0.056843	0.12353	-0.1297	-0.097736	0.080095
841	8.0255	-0.10063	0.045719	0.12277	-0.074823	0.093137	0.36662	-0.092756	0.11885	0.35864	-0.046816	-0.15316	-0.008669	-0.046816	0.031938	-0.008669	0	0	0	-0.13197	-0.0013089	0.01953	-0.1388	0.056636	0.12374	-0.1295	-0.097735	0.079622
842	8.035	-0.10065	0.045473	0.12318	-0.075258	0.090088	0.36776	-0.093177	0.11591	0.35996	-0.046816	-0.15316	-0.008669	-0.046816	0.031938	-0.008669	0	0	0	-0.13182	-0.0010317	0.019419	-0.13877	0.056437	0.12396	-0.12928	-0.097728	0.079159
843	8.0446	-0.10068	0.045238	0.12359	-0.0757	0.087033	0.36886	-0.093606	0.11295	0.36125	-0.046816	-0.15316	-0.008669	-0.046816	0.031938	-0.008669	0	0	0	-0.13166	-0.00075556	0.019313	-0.13873	0.056248	0.12416	-0.12906	-0.097715	0.078705
844	8.0541	-0.10071	0.045011	0.12401	-0.07615	0.083972	0.36993	-0.094043	0.10998	0.36251	-0.046816	-0.15316	-0.008669	-0.046816	0.031938	-0.008669	0	0	0	-0.1315	-0.00048061	0.019213	-0.1387	0.056067	0.12436	-0.12883	-0.097697	0.078259
845	8.0637	-0.10074	0.044794	0.12443	-0.076607	0.080906	0.37095	-0.094488	0.107	0.36375	-0.046816	-0.15316	-0.008669	-0.046816	0.031938	-0.008669	0	0	0	-0.13134	-0.00020677	0.019119	-0.13867	0.055893	0.12456	-0.1286	-0.097672	0.077823
846	8.0732	-0.10078	0.044585	0.12486	-0.077071	0.077835	0.37193	-0.09494	0.10402	0.36496	-0.046816	-0.15316	-0.008669	-0.046816	0.031938	-0.008669	0	0	0	-0.13117	6.5972e-05	0.01903	-0.13864	0.055727	0.12475	-0.12835	-0.097642	0.077395
847	8.0828	-0.10082	0.044383	0.12529	-0.077542	0.074759	0.37288	-0.095399	0.10103	0.36615	-0.046816	-0.15316	-0.008669	-0.046816	0.031938	-0.008669	0	0	0	-0.131	0.00033764	0.018946	-0.13862	0.055569	0.12493	-0.1281	-0.097607	0.076976
848	8.0924	-0.10087	0.04419	0.12573	-0.078019	0.071678	0.37378	-0.095865	0.098024	0.3673	-0.046816	-0.15316	-0.008669	-0.046816	0.031938	-0.008669	0	0	0	-0.13082	0.00060826	0.018868	-0.13859	0.055417	0.12511	-0.12784	-0.097567	0.076564
849	8.1019	-0.10091	0.044003	0.12617	-0.078502	0.068592	0.37464	-0.096338	0.095013	0.36843	-0.046816	-0.15316	-0.008669	-0.046816	0.031938	-0.008669	0	0	0	-0.13065	0.00087784	0.018795	-0.13856	0.055272	0.12529	-0.12758	-0.097521	0.076161
850	8.1115	-0.10096	0.043823	0.12661	-0.078992	0.065502	0.37546	-0.096818	0.091995	0.36952	-0.046816	-0.15316	-0.008669	-0.046816	0.031938	-0.008669	0	0	0	-0.13047	0.0011464	0.018727	-0.13854	0.055133	0.12546	-0.12731	-0.097471	0.075765
851	8.121	-0.10102	0.043649	0.12705	-0.079488	0.062407	0.37624	-0.097303	0.088968	0.37058	-0.046816	-0.15316	-0.008669	-0.046816	0.031938	-0.008669	0	0	0	-0.13029	0.001414	0.018665	-0.13851	0.055	0.12563	-0.12704	-0.097417	0.075376
852	8.1306	-0.10107	0.043481	0.1275	-0.07999	0.059308	0.37698	-0.097795	0.085934	0.37161	-0.046816	-0.15316	-0.008669	-0.046816	0.031938	-0.008669	0	0	0	-0.13011	0.0016806	0.018607	-0.13849	0.054872	0.1258	-0.12676	-0.097358	0.074994
853	8.1401	-0.10113	0.043318	0.12795	-0.080497	0.056205	0.37768	-0.098293	0.082892	0.3726	-0.046816	-0.15316	-0.008669	-0.046816	0.031938	-0.008669	0	0	0	-0.12993	0.0019462	0.018556	-0.13846	0.05475	0.12596	-0.12649	-0.097295	0.074619
854	8.1497	-0.10119	0.043159	0.1284	-0.08101	0.053098	0.37833	-0.098796	0.079843	0.37356	-0.046816	-0.15316	-0.008669	-0.046816	0.031938	-0.008669	0	0	0	-0.12975	0.0022109	0.018509	-0.13844	0.054632	0.12612	-0.1262	-0.097227	0.074251
